<svg xmlns="http://www.w3.org/2000/svg" version="1.1" xmlns:xlink="http://www.w3.org/1999/xlink" xmlns:svgjs="http://svgjs.dev/svgjs" width="300" height="300"><svg data-v-fde0c5aa="" xmlns="http://www.w3.org/2000/svg" viewBox="0 0 300 300" class="iconAbove"><!----><defs data-v-fde0c5aa=""><!----></defs><rect data-v-fde0c5aa="" fill="#386766" x="0" y="0" width="300px" height="300px" class="logo-background-square"></rect><defs data-v-fde0c5aa=""><!----></defs><g data-v-fde0c5aa="" id="SvgjsG1006" fill="#FFFFFF" transform="matrix(6.055154899010738,0,0,6.055154899010738,7.946065477306913,195.57314113368474)"><path d="M3.77 10.64C5.98 10.64 7.14 9.38 7.14 7.38L7.14 0.78L2.94 0.78L2.94 2.59L4.87 2.59L4.87 7.43C4.87 8.39 4.49 8.89 3.71 8.89C3.04 8.89 2.60 8.47 2.45 7.48L0.29 7.80C0.60 9.77 1.69 10.64 3.77 10.64ZM16.21 9.10L15.69 9.10C15.29 9.10 15.16 8.90 15.16 8.55L15.16 5.60C15.16 3.81 14.21 2.86 12.10 2.86C10.01 2.86 9.00 3.79 8.88 5.14L10.89 5.26C10.89 4.56 11.27 4.17 11.97 4.17C12.64 4.17 13.03 4.49 13.03 5.35L13.03 5.98L12.29 5.98C9.83 5.98 8.58 6.65 8.58 8.40C8.58 9.53 9.34 10.64 11.00 10.64C12.03 10.64 12.87 10.21 13.22 9.25C13.23 10.16 13.97 10.64 15.04 10.64C15.51 10.64 15.74 10.63 16.21 10.58ZM11.76 9.24C11.05 9.24 10.71 8.75 10.71 8.20C10.71 7.36 11.37 7.10 12.08 7.10L13.03 7.10L13.03 7.66C13.03 8.68 12.50 9.24 11.76 9.24ZM21.74 10.50L23.94 10.50L23.94 6.27C23.94 5.14 24.44 4.52 25.14 4.52C25.90 4.52 26.12 5.04 26.12 5.99L26.12 10.50L28.36 10.50L28.36 5.61C28.36 4.00 27.76 2.86 26.12 2.86C25.06 2.86 24.18 3.42 23.84 4.59C23.63 3.67 23.10 2.86 21.71 2.86C20.68 2.86 19.87 3.39 19.52 4.52C19.49 3.93 19.43 3.18 19.42 3.00L17.29 3.00C17.32 3.28 17.36 4.05 17.36 4.69L17.36 10.50L19.56 10.50L19.56 6.36C19.56 5.11 20.05 4.52 20.75 4.52C21.50 4.52 21.74 5.04 21.74 6.06ZM30.17 10.50L32.34 10.50L32.34 3.00L30.17 3.00ZM30.17 2.06L32.34 2.06L32.34 0.01L30.17 0.01ZM33.39 4.58L34.38 4.58L34.38 8.51C34.38 9.90 35.10 10.64 36.37 10.64C37.16 10.64 37.59 10.58 38.04 10.56L38.04 8.81L37.34 8.81C36.76 8.81 36.58 8.64 36.58 8.11L36.58 4.58L38.01 4.58L38.01 3.00L36.58 3.00L36.58 0.70L34.38 0.70L34.38 3.00L33.39 3.00ZM41.85 3.15L41.85-0.48L39.62-0.48L39.62 10.50L41.85 10.50L41.85 6.51C41.85 5.36 42.38 4.54 43.25 4.54C44.10 4.54 44.41 5.22 44.41 6.29L44.41 10.50L46.63 10.50L46.63 5.70C46.63 3.99 45.89 2.86 44.20 2.86C43.18 2.86 42.20 3.35 41.79 4.63C41.82 4.24 41.85 3.68 41.85 3.15Z"></path></g><defs data-v-fde0c5aa=""><!----></defs><g data-v-fde0c5aa="" id="SvgjsG1005" stroke="none" fill="#45C6B1" transform="matrix(3.2835446771046914,0,0,3.2835446771046914,-14.177233855234562,-56.84460822558418)"><path d="M23.943 30.807L5 50.001l18.942 19.192a4.386 4.386 0 006.258.002 4.522 4.522 0 00.002-6.338L18.193 50.695l-3.624 2.289 15.634-15.841a4.494 4.494 0 001.295-3.168 4.5 4.5 0 00-1.297-3.17 4.387 4.387 0 00-6.258.002zM76.057 30.808L95 50.001 76.058 69.193a4.386 4.386 0 01-6.258.002 4.522 4.522 0 01-.002-6.338l12.009-12.161 3.624 2.289-15.635-15.841a4.494 4.494 0 01-1.295-3.168 4.5 4.5 0 011.297-3.17 4.386 4.386 0 016.259.002zM60.899 32.352a4.492 4.492 0 00-2.366-2.476 4.386 4.386 0 00-5.825 2.288l-13.82 32.062a4.496 4.496 0 00-.048 3.422 4.492 4.492 0 002.366 2.476 4.386 4.386 0 005.825-2.288l13.82-32.062a4.496 4.496 0 00.048-3.422z"></path></g><!----></svg><style>@media (prefers-color-scheme: light) { :root { filter: none; } }
@media (prefers-color-scheme: dark) { :root { filter: none; } }
</style></svg>